<svg xmlns="http://www.w3.org/2000/svg" width="180" height="55" viewBox="0 0 180 55" version="1.1">
	<path d="M 4.200 8.200 C 2.508 9.892, 2.508 46.108, 4.200 47.800 C 5.091 48.691, 15.117 49, 43.129 49 C 75.332 49, 81.077 48.780, 82.357 47.500 C 83.640 46.217, 89.564 46, 123.217 46 C 162.046 46, 162.636 45.970, 167.034 43.750 C 178.252 38.088, 179.252 20.309, 168.773 12.834 L 165.500 10.500 124.636 10.207 C 90.455 9.963, 83.534 9.677, 82.315 8.457 C 81.089 7.232, 74.842 7, 43.129 7 C 15.117 7, 5.091 7.309, 4.200 8.200 M 4.445 9.282 C 4.175 9.987, 4.076 18.875, 4.227 29.032 L 4.500 47.500 42.770 47.762 L 81.040 48.024 82.020 45.447 C 83.291 42.103, 83.295 13.906, 82.025 10.565 L 81.050 8 42.993 8 C 12.962 8, 4.833 8.270, 4.445 9.282 M 8 21 C 6.593 22.407, 6 24.333, 6 27.500 C 6 33.332, 8.485 36, 13.918 36 C 19.137 36, 21 35.178, 21 32.874 C 21 31.334, 20.514 31.084, 18.500 31.589 C 17.125 31.934, 14.875 31.934, 13.500 31.589 C 11.427 31.069, 11 30.362, 11 27.450 C 11 23.395, 12.881 22.169, 16.545 23.838 C 18.557 24.755, 19.125 24.635, 19.934 23.123 C 21.357 20.464, 19.358 19, 14.300 19 C 11.333 19, 9.380 19.620, 8 21 M 23 27.500 C 23 35.900, 23.029 36, 25.500 36 C 27.971 36, 28 35.900, 28 27.500 C 28 19.100, 27.971 19, 25.500 19 C 23.029 19, 23 19.100, 23 27.500 M 54 27.500 C 54 35.900, 54.029 36, 56.500 36 C 58.750 36, 59 35.600, 59 32 C 59 29.111, 59.417 28, 60.500 28 C 61.583 28, 62 29.111, 62 32 C 62 35.600, 62.250 36, 64.500 36 C 66.725 36, 67 35.585, 67 32.223 C 67 27.193, 64.510 23.669, 61.378 24.268 C 59.322 24.661, 59 24.335, 59 21.861 C 59 19.476, 58.584 19, 56.500 19 C 54.029 19, 54 19.100, 54 27.500 M 142.145 20.325 C 141.237 21.419, 141.311 22.013, 142.476 22.980 C 143.700 23.996, 144.095 23.916, 144.621 22.545 C 145.518 20.208, 143.640 18.523, 142.145 20.325 M 87.655 21.829 C 85.380 24.342, 85.518 30.254, 87.902 32.411 C 90.510 34.772, 97.341 34.251, 97.834 31.653 C 98.113 30.183, 97.758 29.942, 96.092 30.471 C 94.941 30.836, 93.074 30.841, 91.943 30.482 C 90.338 29.973, 89.954 29.133, 90.193 26.665 C 90.473 23.775, 90.778 23.521, 93.693 23.746 C 97.169 24.014, 99.087 22.302, 96.878 20.904 C 94.500 19.397, 89.392 19.909, 87.655 21.829 M 147 27 C 147 33.333, 147.190 34, 149 34 C 150.810 34, 151 33.333, 151 27 C 151 20.667, 150.810 20, 149 20 C 147.190 20, 147 20.667, 147 27 M 44.615 23.465 C 42.800 26.234, 42.537 28, 43.940 28 C 44.456 28, 45.019 29.688, 45.190 31.750 C 45.473 35.174, 45.783 35.527, 48.750 35.813 C 51.164 36.046, 52 35.725, 52 34.563 C 52 33.704, 51.325 33, 50.500 33 C 49.567 33, 49 32.056, 49 30.500 C 49 28.944, 49.567 28, 50.500 28 C 51.333 28, 52 27.111, 52 26 C 52 24.889, 51.333 24, 50.500 24 C 49.675 24, 49 23.325, 49 22.500 C 49 20.164, 46.404 20.735, 44.615 23.465 M 32.250 25.031 C 30.465 25.748, 30 26.728, 30 29.768 C 30 34.581, 31.403 36, 36.165 36 C 38.864 36, 40.223 35.452, 40.965 34.066 C 42.677 30.866, 42.171 27.233, 39.777 25.557 C 37.297 23.819, 35.565 23.699, 32.250 25.031 M 70.455 26.455 C 67.594 29.315, 67.421 30.728, 69.557 33.777 C 70.768 35.507, 72.099 36, 75.557 36 C 79.347 36, 80 35.703, 80 33.981 C 80 32.339, 79.543 32.076, 77.557 32.575 C 76.213 32.912, 74.526 32.808, 73.807 32.344 C 72.937 31.782, 73.838 31.333, 76.500 31 C 80.045 30.557, 80.469 30.221, 80.225 28.044 C 79.705 23.397, 74.378 22.531, 70.455 26.455 M 102.389 25.046 C 99.887 25.978, 98.933 28.027, 99.676 30.870 C 100.316 33.317, 103.179 34.423, 106.631 33.557 C 108.786 33.016, 109.076 32.453, 108.808 29.325 C 108.466 25.322, 106.022 23.693, 102.389 25.046 M 114.250 24.787 C 111.123 25.114, 111 25.294, 111 29.563 C 111 33.333, 111.301 34, 113 34 C 114.619 34, 115 33.333, 115 30.500 C 115 28.575, 115.450 27, 116 27 C 116.550 27, 117 28.575, 117 30.500 C 117 33.333, 117.381 34, 119 34 C 120.628 34, 121 33.333, 121 30.417 C 121 25.898, 123.361 26.243, 123.813 30.827 C 124.292 35.678, 127 35.005, 127 30.035 C 127 25.763, 124.629 23.375, 122 25 C 121.234 25.473, 119.909 25.542, 119.054 25.154 C 118.199 24.765, 116.037 24.600, 114.250 24.787 M 132.170 24.738 C 129.694 25.036, 128.988 25.527, 129.420 26.651 C 129.739 27.483, 130 30.602, 130 33.582 C 130 37.731, 130.351 39, 131.500 39 C 132.422 39, 133 38.063, 133 36.566 C 133 34.682, 133.596 34.061, 135.642 33.816 C 138.876 33.429, 140.295 30.217, 138.664 26.974 C 137.349 24.357, 136.827 24.177, 132.170 24.738 M 155.250 25.030 C 154.012 25.528, 152.947 26.738, 152.882 27.718 C 152.551 32.689, 153.903 34.163, 158.423 33.761 C 162.573 33.391, 162.850 31.226, 158.811 30.728 L 155.500 30.320 158.750 30.160 C 161.507 30.024, 162 29.621, 162 27.500 C 162 26.125, 161.587 25, 161.082 25 C 160.577 25, 159.564 24.803, 158.832 24.563 C 158.099 24.322, 156.488 24.532, 155.250 25.030 M 166.750 24.724 C 164.225 25.099, 164 25.496, 164 29.566 C 164 33.333, 164.301 34, 166 34 C 167.624 34, 168 33.333, 168 30.456 C 168 27.636, 168.357 26.972, 169.750 27.206 C 170.731 27.371, 171.500 26.878, 171.500 26.083 C 171.500 24.436, 170.540 24.161, 166.750 24.724 M 141 29.500 C 141 33.333, 141.296 34, 143 34 C 144.704 34, 145 33.333, 145 29.500 C 145 25.667, 144.704 25, 143 25 C 141.296 25, 141 25.667, 141 29.500 M 103.180 29.250 C 103.356 30.488, 103.950 31.500, 104.500 31.500 C 105.050 31.500, 105.644 30.488, 105.820 29.250 C 106.039 27.702, 105.628 27, 104.500 27 C 103.372 27, 102.961 27.702, 103.180 29.250 M 133 28.917 C 133 30.145, 133.646 31, 134.573 31 C 135.505 31, 136.015 30.320, 135.823 29.333 C 135.337 26.824, 133 26.480, 133 28.917 M 156.813 27.683 C 157.534 27.972, 158.397 27.936, 158.729 27.604 C 159.061 27.272, 158.471 27.036, 157.417 27.079 C 156.252 27.127, 156.015 27.364, 156.813 27.683 M 34.180 30.172 C 34.652 33.373, 37 33.716, 37 30.583 C 37 28.903, 36.451 28, 35.430 28 C 34.388 28, 33.968 28.729, 34.180 30.172 M 73.813 28.683 C 74.534 28.972, 75.397 28.936, 75.729 28.604 C 76.061 28.272, 75.471 28.036, 74.417 28.079 C 73.252 28.127, 73.015 28.364, 73.813 28.683" stroke="none" fill="#000000" fill-rule="evenodd"/>
</svg>